Coordinates
version=1
nRows=14
nColumns=36
inDegrees=yes

Units are S.I. units (second, meters, Newtons, ...)
If the header above contains a line with 'inDegrees', this indicates whether rotational values are in degrees (yes) or radians (no).

endheader
time	pelvis_tilt	pelvis_list	pelvis_rotation	pelvis_tx	pelvis_ty	pelvis_tz	hip_flexion_r	hip_adduction_r	hip_rotation_r	knee_angle_r	knee_angle_r_beta	ankle_angle_r	subtalar_angle_r	mtp_angle_r	hip_flexion_l	hip_adduction_l	hip_rotation_l	knee_angle_l	knee_angle_l_beta	ankle_angle_l	subtalar_angle_l	mtp_angle_l	lumbar_extension	lumbar_bending	lumbar_rotation	arm_flex_r	arm_add_r	arm_rot_r	elbow_flex_r	pro_sup_r	arm_flex_l	arm_add_l	arm_rot_l	elbow_flex_l	pro_sup_l
      6.53333330	    -15.89544294	     -6.01643943	      4.01459574	      0.73602361	      0.74392714	      0.39657528	     52.91622559	     11.93279720	     -5.42274059	     68.60396709	      1.19736511	     39.61915581	     -3.84871579	     -7.49999987	     80.09313439	    -11.43629342	     15.00552664	     38.39606791	      0.67013780	      3.41570526	    -20.49103013	     -7.49999987	      2.41021956	     11.80065360	      3.75951956	     43.05614418	     -1.99691079	     59.40657441	    127.66311819	     98.29716494	     35.58594440	      6.54441158	     56.19138785	    117.53701248	    107.69784517
      6.55000000	    -15.48460207	     -5.64988787	      4.25426535	      0.73649723	      0.75424225	      0.39722882	     51.71653890	     11.76205158	     -4.69834295	     67.38890962	      1.17615835	     38.97776117	     -4.58523280	     -7.49999987	     78.96524915	    -11.36138791	     14.28532659	     38.27663044	      0.66805323	      2.97592687	    -21.07309096	     -7.49999987	      2.16490158	     11.34101428	      3.40670960	     42.90581899	     -1.92379834	     59.50665962	    127.43112214	     97.89219766	     35.99179848	      5.96482233	     54.91522227	    116.60317513	    107.22059031
      6.56666670	    -14.70934636	     -5.29762544	      4.51549312	      0.73649019	      0.76944140	      0.39749061	     49.67179511	     11.67014113	     -3.76548722	     65.35235268	      1.14061373	     37.93016098	     -5.47187767	     -7.49999987	     76.96479593	    -11.34720221	     13.34992651	     37.40978477	      0.65292392	      2.41402635	    -21.46635808	     -7.49999987	      1.34499354	     10.88395083	      3.35754748	     43.06567944	     -1.78754653	     60.02358245	    127.11548603	     98.13751462	     35.91286967	      5.30032305	     55.08560800	    115.96687472	    106.98519373
      6.58333330	    -13.98592969	     -5.13080718	      4.61538445	      0.73210416	      0.77867385	      0.39989506	     47.78533226	     11.95768117	     -2.81123091	     63.06337638	      1.10066356	     36.57165742	     -6.59435653	     -7.49999987	     74.92089994	    -11.76939989	     12.29555412	     36.14259497	      0.63080728	      1.29851986	    -21.59231327	     -7.49999987	      0.68783485	     10.37764252	      3.58423031	     42.73792372	     -1.92904464	     59.45253387	    126.78481349	     98.18361120	     35.47806507	      4.50156276	     56.22250539	    117.75274678	    106.95823249
      6.60000000	    -12.95560886	     -4.92930034	      4.98129190	      0.73211432	      0.78774405	      0.39970942	     45.42803777	     12.11936631	     -1.97980463	     60.61892445	      1.05799982	     35.48525948	     -7.48663978	     -7.49999987	     72.54347538	    -12.04579653	     11.09866933	     35.04605390	      0.61166903	     -0.19380433	    -22.16759079	     -7.49999987	     -0.13394113	     10.12251219	      3.33688185	     42.56541905	     -2.02706727	     59.21290893	    126.65934670	     98.32107683	     35.69075543	      4.71343633	     56.51621004	    117.78740771	    106.99122150
      6.61666670	    -12.55555381	     -4.72799943	      5.33843041	      0.73245357	      0.79127332	      0.39928550	     43.90014808	     11.92919128	     -1.47931997	     58.52520347	      1.02145750	     34.58792297	     -7.46882362	     -7.49999987	     71.21420659	    -12.04962641	     10.30142329	     33.81981189	      0.59026707	     -1.09810687	    -22.62368752	     -7.49999987	     -0.23327283	      9.59398994	      2.98332199	     42.84365782	     -1.78545489	     58.85056505	    127.60564031	     97.98588544	     37.43652743	      5.61441925	     56.96107847	    117.20400002	    107.18371521
      6.63333330	    -12.06217330	     -4.46772478	      5.85945456	      0.73278977	      0.80377411	      0.39966621	     42.14319393	     11.60855319	     -1.03256719	     56.26994215	      0.98209576	     33.17438148	     -8.09883827	     -7.49999987	     69.67608838	    -11.80256461	      9.42791897	     32.89255835	      0.57408344	     -1.11648077	    -22.54783502	     -7.49999987	     -0.48340657	      9.23668788	      2.54890499	     42.55539465	     -1.76524285	     59.06319668	    127.65267033	     97.86149735	     37.50817241	      5.43369842	     57.38704468	    116.52689220	    107.13354032
      6.65000000	    -11.54530898	     -3.97363109	      6.15771185	      0.73296599	      0.81736933	      0.39921307	     40.24911615	     11.21557951	     -0.26912000	     53.84412582	      0.93975728	     31.51826299	     -8.91107632	     -7.49999987	     67.89235392	    -11.53023470	      8.17708647	     31.98528107	      0.55824847	     -1.18372054	    -22.25278843	     -7.49999987	     -1.06670784	      8.59122046	      2.60337006	     41.88549927	     -2.33479915	     59.35223209	    127.30783695	     97.63931582	     37.28423668	      4.97226968	     57.92851899	    115.48566768	    106.97187833
      6.66666670	    -11.01991115	     -3.36362879	      6.44989196	      0.73322732	      0.82709837	      0.39929230	     38.29807553	     10.64554660	      0.47278223	     51.45776499	      0.89810742	     29.78258140	     -9.55204692	     -7.49999987	     66.12091925	    -11.13622620	      6.91360233	     31.21205328	      0.54475310	     -1.26435881	    -22.03215903	     -7.49999987	     -1.51998806	      7.86169483	      2.81481826	     41.46386070	     -2.62488346	     59.09868797	    127.41415051	     97.64022592	     36.43932554	      4.16411657	     56.84557879	    114.21264863	    106.82968239
      6.68333330	    -10.55543518	     -2.74542764	      6.75180590	      0.73366997	      0.83515702	      0.39880845	     36.45928157	     10.03203744	      1.09014365	     49.22144017	      0.85907619	     28.18362597	     -9.86240409	     -7.49999987	     64.27333239	    -10.65503633	      5.76643799	     30.01507791	      0.52386193	     -1.26467964	    -21.40487247	     -7.49999987	     -1.87923361	      7.03973944	      2.87624936	     41.16302165	     -2.55359889	     58.70493200	    127.96134414	     97.96733388	     36.20122813	      3.72477145	     55.64767039	    113.81887159	    106.39667240
      6.70000000	    -10.18944862	     -2.10640344	      7.01745763	      0.73288079	      0.83846758	      0.39342289	     35.06949907	      9.23124775	      1.44843463	     47.62461909	      0.83120641	     26.85612504	    -10.01301564	     -7.49999987	     62.78622095	    -10.07122564	      4.64480034	     29.19182392	      0.50949344	     -1.36849534	    -21.08006313	     -7.49999987	     -1.73050842	      6.21852307	      2.35992559	     41.57992639	     -2.39571180	     58.82141274	    128.77723388	     98.07762839	     36.54990824	      3.72682266	     55.57449990	    115.22308216	    106.33912706
      6.71666670	    -10.25158544	     -1.48963114	      7.15479187	      0.73334854	      0.84743143	      0.39348928	     34.04431919	      8.34466694	      1.72113979	     45.82269315	      0.79975687	     25.60407843	     -9.44624383	     -7.49999987	     62.12487250	     -9.20187895	      4.00922596	     28.14937527	      0.49129928	     -0.43471138	    -20.04619736	     -7.49999987	     -1.47377840	      5.42195532	      1.83401945	     41.27347010	     -2.53547616	     59.98136794	    129.39795586	     94.84288621	     36.38899859	      3.95483710	     56.19762986	    116.11825182	    102.10736269
      6.73333330	     -9.64706262	     -0.84207288	      7.56966362	      0.73331674	      0.85768088	      0.39359919	     32.07720005	      7.47678465	      1.75891262	     43.55812484	      0.76023269	     24.20309355	     -9.43327371	     -7.49999987	     60.11414598	     -8.36435422	      3.09628271	     27.08295179	      0.47268668	      0.39282339	    -18.85294599	     -7.49999987	     -1.88676857	      4.70643464	      1.12560513	     41.48009123	     -2.92180507	     59.72362770	    129.23036591	     95.16144637	     37.19356170	      4.07822398	     54.21320551	    114.14392678	    102.47256528
      6.75000000	     -8.80734647	     -0.16411285	      7.75356415	      0.72862399	      0.86898996	      0.39595519	     30.03557648	      6.80791974	      2.03342186	     41.29480927	      0.72073039	     22.42798425	     -9.75607822	     -7.49999987	     57.95701527	     -8.00712914	      1.82031961	     26.31234615	      0.45923707	      0.07840393	    -18.10913796	     -7.49999987	     -2.72683043	      3.93568471	      0.77138040	     42.10865376	     -2.53761572	     59.80894806	    129.73333711	     95.68840980	     38.62883740	      4.12391287	     54.09241383	    113.68328927	    103.17177209
